<?xml version="1.0" ?><!DOCTYPE svg  PUBLIC '-//W3C//DTD SVG 1.1//EN'  'http://www.w3.org/Graphics/SVG/1.1/DTD/svg11.dtd'><svg enable-background="new 0 0 32 32" height="32px" id="Capa_1" version="1.1" viewBox="0 0 32 32" width="32px" xml:space="preserve" xmlns="http://www.w3.org/2000/svg" xmlns:xlink="http://www.w3.org/1999/xlink"><path d="M16,4C9.383,4,4,9.383,4,16s5.383,12,12,12s12-5.383,12-12S22.617,4,16,4 M16,2c7.732,0,14,6.268,14,14s-6.268,14-14,14  S2,23.732,2,16S8.268,2,16,2L16,2z M19.536,11.05l1.414,1.414L17.414,16l3.536,3.536l-1.414,1.414L16,17.414l-3.536,3.536  l-1.414-1.414L14.586,16l-3.536-3.536l1.414-1.414L16,14.586L19.536,11.05z"/><g/><g/><g/><g/><g/><g/></svg>